<svg width="365" height="100" viewBox="0 0 365 100" fill="none" xmlns="http://www.w3.org/2000/svg">
<rect x="2" y="2" width="361" height="96" rx="3" fill="#A57A1E" fill-opacity="0.11" stroke="#A57A1E" stroke-width="4"/>
<path d="M134 57H131.5V54.5V52H129H126.5H124V54.5V57H121.5H119V54.5V52V49.5V47V44.5V42V39.5H121.5H124H126.5H129H131.5H134V42H136.5V44.5V47V49.5H134V52H136.5V54.5V57H134ZM129 47H131.5V44.5H129H126.5H124V47H126.5H129ZM154 57H151.5V54.5V52H149H146.5H144V54.5V57H141.5H139V54.5V52V49.5V47V44.5V42H141.5V39.5H144H146.5H149H151.5H154V42H156.5V44.5V47V49.5V52V54.5V57H154ZM149 47H151.5V44.5H149H146.5H144V47H146.5H149ZM174 57H171.5V54.5V52H169V49.5H166.5V47H164V49.5V52V54.5V57H161.5H159V54.5V52V49.5V47V44.5V42V39.5H161.5H164V42H166.5V44.5H169V47H171.5V44.5V42V39.5H174H176.5V42V44.5V47V49.5V52V54.5V57H174ZM194 57H191.5H189V54.5H186.5V52H184V54.5V57H181.5H179V54.5V52V49.5V47V44.5V42V39.5H181.5H184V42V44.5H186.5V42H189V39.5H191.5H194H196.5V42H194V44.5H191.5V47H189V49.5H191.5V52H194V54.5H196.5V57H194ZM201.5 57H199V54.5V52V49.5V47V44.5V42V39.5H201.5H204V42V44.5V47V49.5V52V54.5V57H201.5ZM221.5 57H219V54.5V52H216.5V49.5H214V47H211.5V49.5V52V54.5V57H209H206.5V54.5V52V49.5V47V44.5V42V39.5H209H211.5V42H214V44.5H216.5V47H219V44.5V42V39.5H221.5H224V42V44.5V47V49.5V52V54.5V57H221.5ZM241.5 57H239H236.5H234H231.5H229V54.5H226.5V52V49.5V47V44.5V42H229V39.5H231.5H234H236.5H239H241.5H244V42V44.5H241.5H239H236.5H234H231.5V47V49.5V52H234H236.5H239V49.5H236.5H234V47H236.5H239H241.5H244V49.5V52V54.5V57H241.5Z" fill="#A57A1E"/>
</svg>
